<svg xmlns="http://www.w3.org/2000/svg" font-family="Helvetica Neue, Helvetica, Arial, sans-serif" viewBox="8 32 675 323"><rect width="675" height="323" x="8" y="32" fill="#fff" rx="0"/><defs><marker id="arrow" markerHeight="6" markerWidth="8" orient="auto" refX="7" refY="3"><path fill="#555" d="M0,0 L8,3 L0,6 Z"/></marker><marker id="arrow-red" markerHeight="6" markerWidth="8" orient="auto" refX="7" refY="3"><path fill="#6C2A4A" d="M0,0 L8,3 L0,6 Z"/></marker><marker id="arrow-green" markerHeight="6" markerWidth="8" orient="auto" refX="7" refY="3"><path fill="#375623" d="M0,0 L8,3 L0,6 Z"/></marker></defs><text x="48" y="80" fill="#6C2A4A" font-size="10" font-weight="700" transform="matrix(0, -1, 1, 0, -43.033691, 142.291855)" style="white-space:pre;font-size:10px">PLAN</text><text x="48" y="195" fill="#6C2A4A" font-size="10" font-weight="700" transform="matrix(0, -1, 1, 0, -160.701889, 266.093964)" style="white-space:pre;font-size:10px">GENERATE</text><text x="18" y="310" fill="#6C2A4A" font-size="10" font-weight="700" transform="matrix(0, -1, 1, 0, -275.701904, 346.166809)" style="white-space:pre;font-size:10px">VALIDATE</text><line x1="20" x2="660" y1="140" y2="140" stroke="#e0e0e0" stroke-dasharray="4 3" stroke-width=".8"/><line x1="20" x2="660" y1="255" y2="255" stroke="#e0e0e0" stroke-dasharray="4 3" stroke-width=".8"/><rect width="140" height="50" x="80" y="58" fill="#E9EFF7" stroke="#2F5496" stroke-width="1.5" rx="0"/><text x="150" y="80" fill="#333" font-size="10" font-weight="700" text-anchor="middle" style="white-space:pre">3D Coverage Cube</text><text x="150" y="98" fill="#555" font-size="8" text-anchor="middle" style="white-space:pre">4 tracks × 6 levels × 13 areas</text><line x1="220" x2="280" y1="83" y2="83" stroke="#555" stroke-width="1.2" marker-end="url(#arrow)"/><rect width="130" height="50" x="280" y="58" fill="#FDF2EA" stroke="#843C0C" stroke-width="1.5" rx="0"/><text x="345" y="80" fill="#333" font-size="10" font-weight="700" text-anchor="middle" style="white-space:pre">Gap Analyzer</text><text x="345" y="98" fill="#555" font-size="8" text-anchor="middle" style="white-space:pre">ChromaDB embeddings</text><line x1="410" x2="470" y1="83" y2="83" stroke="#555" stroke-width="1.2" marker-end="url(#arrow)"/><rect width="130" height="50" x="470" y="58" fill="#FDF2EA" stroke="#843C0C" stroke-width="1.5" rx="0"/><text x="535" y="80" fill="#333" font-size="10" font-weight="700" text-anchor="middle" style="white-space:pre">Prompt Builder</text><text x="535" y="98" fill="#555" font-size="8" text-anchor="middle" style="white-space:pre">ECD templates</text><rect width="180" height="50" x="140" y="170" fill="#EBF1E4" stroke="#375623" stroke-width="1.5" rx="0"/><text x="230" y="192" fill="#333" font-size="10" font-weight="700" text-anchor="middle" style="white-space:pre">LLM Engine</text><text x="230" y="210" fill="#555" font-size="8" text-anchor="middle" style="white-space:pre">HW-grounded prompts</text><line x1="320" x2="390" y1="195" y2="195" stroke="#555" stroke-width="1.2" marker-end="url(#arrow)"/><text x="355" y="154" fill="#666" font-size="7" font-style="italic" text-anchor="middle" style="white-space:pre"><tspan x="355" dy="0">ECD</tspan> <tspan x="355" dy="9">claim → evidence → task</tspan></text><rect width="160" height="50" x="390" y="170" fill="#f7f7f7" stroke="#bbb" stroke-width="1.5" rx="0"/><text x="470" y="192" fill="#333" font-size="10" font-weight="700" text-anchor="middle" style="white-space:pre">Raw Candidates</text><text x="470" y="210" fill="#555" font-size="8" text-anchor="middle" style="white-space:pre">JSON + metadata</text><rect width="95" height="50" x="42" y="280" fill="#FDF2EA" stroke="#843C0C" stroke-width="1.5" rx="0"/><text x="89" y="300" fill="#333" font-size="9.5" font-weight="700" text-anchor="middle" style="white-space:pre">Schema</text><text x="89" y="318" fill="#555" font-size="8" text-anchor="middle" style="white-space:pre">Pydantic</text><line x1="137" x2="155" y1="305" y2="305" stroke="#555" stroke-width="1.2" marker-end="url(#arrow)"/><rect width="110" height="50" x="160" y="280" fill="#F3E8ED" stroke="#6C2A4A" stroke-width="1.5" rx="0"/><text x="215" y="300" fill="#333" font-size="9.5" font-weight="700" text-anchor="middle" style="white-space:pre">Dedup</text><text x="215" y="318" fill="#555" font-size="8" text-anchor="middle" style="white-space:pre">3-stage pipeline</text><line x1="270" x2="288" y1="305" y2="305" stroke="#555" stroke-width="1.2" marker-end="url(#arrow)"/><rect width="110" height="50" x="293" y="280" fill="#F3E8ED" stroke="#6C2A4A" stroke-width="1.5" rx="0"/><text x="348" y="300" fill="#333" font-size="9.5" font-weight="700" text-anchor="middle" style="white-space:pre">Math Review</text><text x="348" y="318" fill="#555" font-size="8" text-anchor="middle" style="white-space:pre">multi-model</text><line x1="403" x2="421" y1="305" y2="305" stroke="#555" stroke-width="1.2" marker-end="url(#arrow)"/><rect width="100" height="50" x="426" y="280" fill="#E9EFF7" stroke="#2F5496" stroke-width="1.5" rx="0"/><text x="476" y="300" fill="#333" font-size="9.5" font-weight="700" text-anchor="middle" style="white-space:pre">Invariants</text><text x="476" y="318" fill="#555" font-size="8" text-anchor="middle" style="white-space:pre">19 CI checks</text><line x1="526" x2="544" y1="305" y2="305" stroke="#375623" stroke-width="1.2" marker-end="url(#arrow-green)"/><rect width="95" height="50" x="549" y="280" fill="#EBF1E4" stroke="#375623" stroke-width="1.5" rx="0"/><text x="596" y="300" fill="#333" font-size="11" font-weight="700" text-anchor="middle" style="white-space:pre">Corpus</text><text x="596" y="318" fill="#555" font-size="8" text-anchor="middle" style="white-space:pre">validated</text><text x="340" y="270" fill="#888" font-size="6.5" text-anchor="middle" style="white-space:pre">exact · fuzzy &gt;0.90 · semantic &gt;0.85</text><path fill="none" stroke="#6C2A4A" stroke-dasharray="4 2" stroke-width="1.2" marker-end="url(#arrow-red)" d="M644,305 L660,305 L660,40 L150,40 L150,58"/><text x="670" y="195" fill="#6C2A4A" font-size="8" font-weight="400" text-anchor="middle" transform="rotate(-90,670,195)" style="white-space:pre">feedback loop</text></svg>